<?xml version="1.0" encoding="UTF-8" standalone="no"?>
<svg
   xmlns:dc="http://purl.org/dc/elements/1.1/"
   xmlns:cc="http://creativecommons.org/ns#"
   xmlns:rdf="http://www.w3.org/1999/02/22-rdf-syntax-ns#"
   xmlns:svg="http://www.w3.org/2000/svg"
   xmlns="http://www.w3.org/2000/svg"
   xmlns:sodipodi="http://sodipodi.sourceforge.net/DTD/sodipodi-0.dtd"
   xmlns:inkscape="http://www.inkscape.org/namespaces/inkscape"
   width="214px"
   height="153px"
   viewBox="0 0 214 153"
   version="1.1"
   id="svg3853"
   inkscape:version="0.48.4 r9939"
   sodipodi:docname="Cusp function.svg">
  <metadata
     id="metadata3885">
    <rdf:RDF>
      <cc:Work
         rdf:about="">
        <dc:format>image/svg+xml</dc:format>
        <dc:type
           rdf:resource="http://purl.org/dc/dcmitype/StillImage" />
        <dc:title />
      </cc:Work>
    </rdf:RDF>
  </metadata>
  <defs
     id="defs3883" />
  <sodipodi:namedview
     pagecolor="#ffffff"
     bordercolor="#666666"
     borderopacity="1"
     objecttolerance="10"
     gridtolerance="10"
     guidetolerance="10"
     inkscape:pageopacity="0"
     inkscape:pageshadow="2"
     inkscape:window-width="1351"
     inkscape:window-height="836"
     id="namedview3881"
     showgrid="false"
     inkscape:zoom="2.9105428"
     inkscape:cx="51.418227"
     inkscape:cy="44.696286"
     inkscape:window-x="73"
     inkscape:window-y="2"
     inkscape:window-maximized="0"
     inkscape:current-layer="svg3853" />
  <g
     id="g3865" />
  <g
     style="stroke-width:2"
     id="g3857">
    <path
       style="stroke:#000000"
       d="M 0,118 H 208"
       id="path4661"
       inkscape:connector-curvature="0" />
    <path
       style="stroke:#000000"
       d="M 71.3333,153 V 6"
       id="path3859" />
    <path
       d="m 214,118 -12,-6 q 6,6 0,12 z"
       id="path4665"
       inkscape:connector-curvature="0" />
    <path
       d="m 71.3333,0 -6,12 q 6,-6 12,0 z"
       id="path3861" />
  </g>
  <g
     style="font-size:72px;font-style:italic;font-variant:normal;font-weight:normal;font-stretch:normal;text-align:start;line-height:125%;letter-spacing:0px;word-spacing:0px;writing-mode:lr-tb;text-anchor:start;fill:#000000;fill-opacity:1;stroke:none;font-family:Times New Roman;-inkscape-font-specification:'Times New Roman, Italic'"
     id="text3293"
     transform="translate(-9.95171,41.306462)">
    <path
       d="m 118.60542,86.795761 c 0.4466,0.47397 0.78384,0.947928 1.01171,1.421875 0.16406,0.328136 0.43294,1.189463 0.80664,2.583984 l 1.20313,-1.804687 c 0.319,-0.437489 0.70637,-0.854481 1.16211,-1.250977 0.45572,-0.396472 0.85676,-0.667631 1.20312,-0.813476 0.21874,-0.09113 0.46028,-0.136707 0.72461,-0.136719 0.39192,1.2e-5 0.70409,0.10483 0.93653,0.314453 0.23241,0.209647 0.34862,0.464856 0.34863,0.765625 -1e-5,0.346365 -0.0684,0.583344 -0.20508,0.710938 -0.25522,0.227875 -0.54688,0.341807 -0.875,0.341797 -0.19142,1e-5 -0.39649,-0.04101 -0.61523,-0.123047 -0.4284,-0.145823 -0.71551,-0.21874 -0.86133,-0.21875 -0.21876,1e-5 -0.47853,0.127614 -0.7793,0.382812 -0.56511,0.473968 -1.23959,1.389983 -2.02344,2.748047 l 1.1211,4.703125 c 0.17317,0.720054 0.319,1.150718 0.4375,1.291992 0.11848,0.141278 0.23697,0.211916 0.35547,0.211914 0.19139,2e-6 0.4147,-0.104816 0.66992,-0.314453 0.50129,-0.419269 0.92968,-0.966143 1.28516,-1.640625 l 0.47851,0.246094 c -0.57423,1.075523 -1.30339,1.968751 -2.1875,2.679687 -0.50131,0.401042 -0.92514,0.601563 -1.27148,0.601563 -0.51043,0 -0.91603,-0.287109 -1.2168,-0.861328 -0.19141,-0.355468 -0.5879,-1.886716 -1.18945,-4.59375 -1.42188,2.470055 -2.5612,4.060548 -3.41797,4.771484 -0.55599,0.455729 -1.09375,0.683594 -1.61328,0.683594 -0.36459,0 -0.69727,-0.132162 -0.99805,-0.396484 -0.21875,-0.200521 -0.32812,-0.469401 -0.32813,-0.806641 10e-6,-0.30078 0.10027,-0.551431 0.30079,-0.751953 0.20052,-0.200519 0.44661,-0.300779 0.73828,-0.300781 0.29166,2e-6 0.60156,0.145835 0.92968,0.4375 0.23698,0.209636 0.41927,0.314454 0.54688,0.314453 0.10937,10e-7 0.25065,-0.07292 0.42383,-0.21875 0.42838,-0.346353 1.01171,-1.093748 1.75,-2.242188 0.73827,-1.148432 1.22135,-1.977859 1.44922,-2.488281 -0.56511,-2.214835 -0.87045,-3.386058 -0.91602,-3.513672 -0.20964,-0.592438 -0.48308,-1.011708 -0.82031,-1.257812 -0.33724,-0.246083 -0.83399,-0.36913 -1.49024,-0.369141 -0.20963,1.1e-5 -0.45117,0.0091 -0.72461,0.02734 l 0,-0.492188 z"
       style="font-size:28px"
       id="path3516"
       inkscape:connector-curvature="0" />
    <path
       d="m 132.45785,92.469416 c 0.75833,1.2e-5 1.39671,0.316976 1.91511,0.950892 0.51839,0.633939 0.77759,1.635189 0.7776,3.003753 -1e-5,1.173071 -0.19256,2.369831 -0.57764,3.590289 -0.38511,1.22046 -0.9272,2.27799 -1.6263,3.1726 -0.55691,0.70502 -1.14048,1.21454 -1.7507,1.52854 -0.35548,0.17773 -0.76724,0.2666 -1.23528,0.2666 -0.77019,0 -1.41449,-0.31696 -1.93288,-0.95089 -0.5184,-0.63393 -0.7776,-1.63814 -0.7776,-3.01264 0,-1.35672 0.26068,-2.719368 0.78204,-4.087948 0.61023,-1.599623 1.38931,-2.814157 2.33724,-3.643606 0.62207,-0.545048 1.31821,-0.817578 2.08841,-0.81759 z m 0.009,0.462116 c -0.34363,1.2e-5 -0.69169,0.134795 -1.0442,0.404351 -0.35252,0.269579 -0.71688,0.830931 -1.09308,1.684057 -0.37621,0.853146 -0.73613,1.952151 -1.07975,3.297019 -0.44435,1.759601 -0.66652,3.258511 -0.66652,4.496741 0,0.61616 0.1333,1.07679 0.39991,1.38191 0.2666,0.30511 0.58949,0.45767 0.96867,0.45767 0.36139,0 0.66947,-0.11849 0.92423,-0.35547 0.68132,-0.63986 1.26489,-1.73294 1.75071,-3.27925 0.78796,-2.529782 1.18194,-4.585603 1.18195,-6.16747 -1e-5,-0.657616 -0.13331,-1.141948 -0.39991,-1.452999 -0.26661,-0.311028 -0.58061,-0.466547 -0.94201,-0.466559 z"
       style="font-size:65.00091553%;baseline-shift:sub"
       id="path3518"
       inkscape:connector-curvature="0" />
  </g>
  <path
     style="fill:none;stroke:#0000ff;stroke-width:2;stroke-linecap:butt;stroke-linejoin:miter;stroke-miterlimit:4;stroke-opacity:1;stroke-dasharray:4, 2;stroke-dashoffset:0"
     d="m 114.00733,20.566431 0,95.200079"
     id="path4374"
     inkscape:connector-curvature="0"
     sodipodi:nodetypes="cc" />
  <path
     sodipodi:nodetypes="ccc"
     inkscape:connector-curvature="0"
     style="fill:none;stroke:#ff0000;stroke-width:2;stroke-opacity:1"
     id="path3929-7"
     d="M 2.7861404,51.250095 C 79.963868,52.10216 113.98652,53.049378 113.91131,101.08313 114.13053,53.200831 143.12065,12.386013 208.73676,11.964131" />
  <circle
     transform="translate(6.9821755,15.95499)"
     sodipodi:ry="4"
     sodipodi:rx="4"
     sodipodi:cy="102"
     sodipodi:cx="107"
     cx="107"
     cy="102"
     r="4"
     id="circle3873" />
</svg>
